<?xml version="1.0" encoding="UTF-8"?>
<svg width="60px" height="61px" viewBox="0 0 60 61" version="1.1" xmlns="http://www.w3.org/2000/svg" xmlns:xlink="http://www.w3.org/1999/xlink">
    <!-- Generator: Sketch 51 (57462) - http://www.bohemiancoding.com/sketch -->
    <title>Group 17</title>
    <desc>Created with Sketch.</desc>
    <defs></defs>
    <g id="Prep" stroke="none" stroke-width="1" fill="none" fill-rule="evenodd">
        <g id="Group-17">
            <polygon id="Fill-11" fill="#FFFFFF" points="43.3390813 0.446684432 29.7332609 9.55267321 16.1957714 0.44285554 0.0549298738 11.2850996 0.0549298738 50.0856185 16.1981276 60.8995877 29.7332609 51.7880028 43.3390813 60.8972314 59.4734432 50.085324 59.4734432 11.254763"></polygon>
            <path d="M16.4410266,39.5134586 L27.2414474,46.9388583 L16.4410266,54.3639635 L16.4410266,39.5134586 Z M56.9427518,12.5124067 L43.4420785,3.39964376 L29.9416999,12.5124067 L16.4410266,3.39964376 L2.60311641,12.5124067 L2.60311641,48.6262216 L16.4410266,57.7392791 L29.9416999,48.6262216 L43.4420785,57.7392791 L56.9427518,48.6262216 L56.9427518,12.5124067 Z M43.4420785,25.0004853 L43.4420785,6.7746648 L53.9049677,13.862533 L53.9049677,46.6013268 L5.30307433,14.2000645 L16.4410266,6.7746648 L43.4420785,25.0004853 Z" id="Fill-13" fill="#006341"></path>
        </g>
    </g>
</svg>